<svg width="146" height="30" viewBox="0 0 146 30" fill="none" xmlns="http://www.w3.org/2000/svg">
<path d="M43.4677 23H40.5146L45.8913 7.72727H49.3068L54.6911 23H51.7379L47.6587 10.8594H47.5394L43.4677 23ZM43.5646 17.0117H51.6186V19.234H43.5646V17.0117ZM59.2829 7.72727V23H56.5834V7.72727H59.2829ZM62.0589 27.2955V11.5455H64.7138V13.4396H64.8704C65.0096 13.1612 65.206 12.8654 65.4595 12.5522C65.7131 12.234 66.0561 11.9631 66.4886 11.7393C66.9212 11.5107 67.473 11.3963 68.1442 11.3963C69.0291 11.3963 69.8271 11.6225 70.538 12.0749C71.2539 12.5224 71.8207 13.1861 72.2383 14.0661C72.6609 14.9411 72.8722 16.0149 72.8722 17.2876C72.8722 18.5455 72.6658 19.6143 72.2532 20.4943C71.8406 21.3743 71.2788 22.0455 70.5678 22.5078C69.8569 22.9702 69.0515 23.2013 68.1516 23.2013C67.4954 23.2013 66.951 23.092 66.5185 22.8732C66.0859 22.6545 65.7379 22.391 65.4744 22.0827C65.2159 21.7695 65.0146 21.4737 64.8704 21.1953H64.7585V27.2955H62.0589ZM64.7063 17.2727C64.7063 18.0135 64.8107 18.6623 65.0195 19.2191C65.2333 19.7759 65.5391 20.2109 65.9368 20.5241C66.3395 20.8324 66.8267 20.9865 67.3984 20.9865C67.995 20.9865 68.4947 20.8274 68.8974 20.5092C69.3001 20.1861 69.6033 19.7461 69.8072 19.1893C70.016 18.6275 70.1204 17.9886 70.1204 17.2727C70.1204 16.5618 70.0185 15.9304 69.8146 15.3786C69.6108 14.8267 69.3075 14.3942 68.9048 14.081C68.5021 13.7678 68 13.6112 67.3984 13.6112C66.8217 13.6112 66.332 13.7628 65.9293 14.0661C65.5266 14.3693 65.2209 14.7944 65.0121 15.3413C64.8082 15.8881 64.7063 16.532 64.7063 17.2727ZM77.8835 16.2884V23H75.1839V7.72727H77.8239V13.4918H77.9581C78.2266 12.8455 78.6417 12.3359 79.2035 11.9631C79.7702 11.5852 80.4911 11.3963 81.3661 11.3963C82.1616 11.3963 82.8551 11.5629 83.4467 11.896C84.0384 12.229 84.4957 12.7163 84.8189 13.3576C85.147 13.9989 85.3111 14.782 85.3111 15.7067V23H82.6115V16.1243C82.6115 15.3537 82.4126 14.7546 82.0149 14.3271C81.6222 13.8945 81.0703 13.6783 80.3594 13.6783C79.8821 13.6783 79.4545 13.7827 79.0767 13.9915C78.7038 14.1953 78.4105 14.4911 78.1967 14.8789C77.9879 15.2667 77.8835 15.7365 77.8835 16.2884ZM91.359 23.2312C90.6332 23.2312 89.9794 23.1019 89.3977 22.8434C88.821 22.5799 88.3636 22.1921 88.0256 21.68C87.6925 21.168 87.5259 20.5366 87.5259 19.7859C87.5259 19.1396 87.6452 18.6051 87.8839 18.1825C88.1225 17.7599 88.4482 17.4219 88.8608 17.1683C89.2734 16.9148 89.7383 16.7234 90.2553 16.5941C90.7773 16.4599 91.3168 16.3629 91.8736 16.3033C92.5447 16.2337 93.0891 16.1715 93.5067 16.1168C93.9244 16.0572 94.2276 15.9677 94.4165 15.8484C94.6104 15.7241 94.7074 15.5327 94.7074 15.2741V15.2294C94.7074 14.6676 94.5408 14.2326 94.2077 13.9244C93.8746 13.6161 93.3949 13.462 92.7685 13.462C92.1072 13.462 91.5827 13.6062 91.195 13.8945C90.8121 14.1829 90.5536 14.5234 90.4194 14.9162L87.8988 14.5582C88.0977 13.8622 88.4258 13.2805 88.8832 12.8132C89.3406 12.3409 89.8999 11.9879 90.5611 11.7543C91.2223 11.5156 91.9531 11.3963 92.7536 11.3963C93.3054 11.3963 93.8548 11.4609 94.4016 11.5902C94.9485 11.7195 95.4482 11.9332 95.9006 12.2315C96.353 12.5249 96.7159 12.9251 96.9893 13.4322C97.2678 13.9393 97.407 14.5732 97.407 15.3338V23H94.8118V21.4265H94.7223C94.5582 21.7447 94.3271 22.043 94.0288 22.3214C93.7354 22.5948 93.3651 22.8161 92.9176 22.9851C92.4751 23.1491 91.9556 23.2312 91.359 23.2312ZM92.06 21.2475C92.6019 21.2475 93.0717 21.1406 93.4695 20.9268C93.8672 20.7081 94.1729 20.4197 94.3867 20.0618C94.6055 19.7038 94.7148 19.3136 94.7148 18.891V17.5412C94.6303 17.6108 94.4862 17.6754 94.2823 17.7351C94.0835 17.7947 93.8597 17.8469 93.6112 17.8917C93.3626 17.9364 93.1165 17.9762 92.8729 18.011C92.6293 18.0458 92.418 18.0756 92.239 18.1005C91.8363 18.1552 91.4759 18.2447 91.1577 18.369C90.8395 18.4933 90.5884 18.6673 90.4045 18.891C90.2205 19.1097 90.1286 19.3931 90.1286 19.7411C90.1286 20.2383 90.31 20.6136 90.6729 20.8672C91.0359 21.1207 91.4982 21.2475 92.06 21.2475ZM98.6057 10.0465V7.72727H110.791V10.0465H106.071V23H103.326V10.0465H98.6057ZM114.758 23.2312C114.033 23.2312 113.379 23.1019 112.797 22.8434C112.22 22.5799 111.763 22.1921 111.425 21.68C111.092 21.168 110.925 20.5366 110.925 19.7859C110.925 19.1396 111.045 18.6051 111.283 18.1825C111.522 17.7599 111.848 17.4219 112.26 17.1683C112.673 16.9148 113.138 16.7234 113.655 16.5941C114.177 16.4599 114.716 16.3629 115.273 16.3033C115.944 16.2337 116.489 16.1715 116.906 16.1168C117.324 16.0572 117.627 15.9677 117.816 15.8484C118.01 15.7241 118.107 15.5327 118.107 15.2741V15.2294C118.107 14.6676 117.94 14.2326 117.607 13.9244C117.274 13.6161 116.794 13.462 116.168 13.462C115.507 13.462 114.982 13.6062 114.594 13.8945C114.212 14.1829 113.953 14.5234 113.819 14.9162L111.298 14.5582C111.497 13.8622 111.825 13.2805 112.283 12.8132C112.74 12.3409 113.299 11.9879 113.96 11.7543C114.622 11.5156 115.353 11.3963 116.153 11.3963C116.705 11.3963 117.254 11.4609 117.801 11.5902C118.348 11.7195 118.848 11.9332 119.3 12.2315C119.752 12.5249 120.115 12.9251 120.389 13.4322C120.667 13.9393 120.806 14.5732 120.806 15.3338V23H118.211V21.4265H118.122C117.958 21.7447 117.726 22.043 117.428 22.3214C117.135 22.5948 116.764 22.8161 116.317 22.9851C115.875 23.1491 115.355 23.2312 114.758 23.2312ZM115.459 21.2475C116.001 21.2475 116.471 21.1406 116.869 20.9268C117.267 20.7081 117.572 20.4197 117.786 20.0618C118.005 19.7038 118.114 19.3136 118.114 18.891V17.5412C118.03 17.6108 117.886 17.6754 117.682 17.7351C117.483 17.7947 117.259 17.8469 117.011 17.8917C116.762 17.9364 116.516 17.9762 116.272 18.011C116.029 18.0458 115.817 18.0756 115.638 18.1005C115.236 18.1552 114.875 18.2447 114.557 18.369C114.239 18.4933 113.988 18.6673 113.804 18.891C113.62 19.1097 113.528 19.3931 113.528 19.7411C113.528 20.2383 113.709 20.6136 114.072 20.8672C114.435 21.1207 114.898 21.2475 115.459 21.2475ZM132.574 14.5732L130.113 14.8416C130.044 14.593 129.922 14.3594 129.748 14.1406C129.579 13.9219 129.35 13.7454 129.062 13.6112C128.773 13.4769 128.42 13.4098 128.003 13.4098C127.441 13.4098 126.969 13.5316 126.586 13.7752C126.208 14.0188 126.022 14.3345 126.027 14.7223C126.022 15.0554 126.143 15.3263 126.392 15.5352C126.646 15.744 127.063 15.9155 127.645 16.0497L129.599 16.4673C130.682 16.701 131.488 17.0714 132.015 17.5785C132.547 18.0856 132.815 18.7493 132.82 19.5696C132.815 20.2905 132.604 20.9268 132.186 21.4787C131.774 22.0256 131.199 22.4531 130.464 22.7614C129.728 23.0696 128.883 23.2237 127.928 23.2237C126.526 23.2237 125.398 22.9304 124.543 22.3438C123.687 21.7521 123.178 20.9293 123.014 19.8754L125.646 19.6218C125.766 20.1388 126.019 20.5291 126.407 20.7926C126.795 21.0561 127.299 21.1879 127.921 21.1879C128.562 21.1879 129.077 21.0561 129.464 20.7926C129.857 20.5291 130.054 20.2035 130.054 19.8157C130.054 19.4876 129.927 19.2166 129.673 19.0028C129.425 18.7891 129.037 18.625 128.51 18.5107L126.556 18.1005C125.457 17.8718 124.644 17.4865 124.117 16.9446C123.59 16.3977 123.329 15.7067 123.334 14.8714C123.329 14.1655 123.521 13.554 123.909 13.0369C124.301 12.5149 124.846 12.1122 125.542 11.8288C126.243 11.5405 127.051 11.3963 127.965 11.3963C129.308 11.3963 130.364 11.6822 131.135 12.2539C131.91 12.8256 132.39 13.5987 132.574 14.5732ZM137.507 19.4055L137.5 16.1467H137.932L142.049 11.5455H145.203L140.14 17.1832H139.58L137.507 19.4055ZM135.046 23V7.72727H137.746V23H135.046ZM142.235 23L138.506 17.7873L140.326 15.8857L145.464 23H142.235Z" fill="white"/>
<rect width="30" height="30" rx="4.5" fill="#13EC5B"/>
<path d="M13.3226 19.118L9.27246 15.0669L10.6222 13.7171L13.3226 16.4166L18.7215 11.0167L20.0722 12.3674L13.3226 19.118Z" fill="#1E1F24"/>
<path fill-rule="evenodd" clip-rule="evenodd" d="M4.5 15C4.5 9.20114 9.20114 4.5 15 4.5C20.7989 4.5 25.5 9.20114 25.5 15C25.5 20.7989 20.7989 25.5 15 25.5C9.20114 25.5 4.5 20.7989 4.5 15ZM15 23.5909C13.8718 23.5909 12.7547 23.3687 11.7124 22.937C10.6701 22.5052 9.72305 21.8724 8.92531 21.0747C8.12757 20.2769 7.49477 19.3299 7.06303 18.2876C6.6313 17.2453 6.40909 16.1282 6.40909 15C6.40909 13.8718 6.6313 12.7547 7.06303 11.7124C7.49477 10.6701 8.12757 9.72305 8.92531 8.92531C9.72305 8.12757 10.6701 7.49477 11.7124 7.06303C12.7547 6.6313 13.8718 6.40909 15 6.40909C17.2785 6.40909 19.4636 7.3142 21.0747 8.92531C22.6858 10.5364 23.5909 12.7215 23.5909 15C23.5909 17.2785 22.6858 19.4636 21.0747 21.0747C19.4636 22.6858 17.2785 23.5909 15 23.5909Z" fill="#1E1F24"/>
</svg>
